<svg width="450" height="193" viewBox="0 0 450 193" fill="none" xmlns="http://www.w3.org/2000/svg">
<path d="M11.5776 16.2371L11.5737 16.2377C7.80774 16.8506 5.31257 18.2134 3.9109 20.2604C2.51112 22.3047 2.29856 24.8905 2.74424 27.6961C3.18746 30.4863 4.29423 33.5751 5.63136 36.7274C6.57174 38.9444 7.65633 41.2601 8.73483 43.5628C9.18455 44.523 9.63321 45.4809 10.0699 46.4285C11.2333 48.9972 12.3476 51.9942 13.5331 55.1826C13.7782 55.8417 14.0263 56.509 14.2785 57.1823C15.735 61.0709 17.3185 65.1334 19.1897 68.7459C21.0451 72.328 23.2879 75.6788 26.1659 77.9895C29.1745 80.4051 32.6826 81.5303 36.6549 80.8881C40.3942 80.2876 45.7248 78.3098 51.3924 75.5845C57.0892 72.8452 63.2268 69.3015 68.5904 65.4983C73.9374 61.7068 78.5859 57.6083 81.2341 53.7437C82.5535 51.8182 83.44 49.8615 83.5941 47.9482C83.7523 45.9861 83.1356 43.9593 81.327 42.1729C78.444 39.3239 73.5068 36.1715 67.7049 33.115C61.8463 30.0286 54.9133 26.9408 47.8812 24.2585C40.8496 21.5764 33.6795 19.2846 27.347 17.8045C21.0618 16.3354 15.4248 15.6228 11.5776 16.2371Z" fill="#171717" stroke="#171717" stroke-width="3"/>
<path d="M119.05 28.0093L119.05 28.0093L119.048 28.0119C117.762 29.659 117.371 31.5208 117.58 33.4091C117.787 35.2823 118.589 37.2519 119.783 39.2387C122.173 43.2163 126.262 47.465 130.947 51.4148C135.641 55.3723 140.976 59.0655 145.902 61.9241C150.804 64.7685 155.38 66.833 158.546 67.4669C160.204 67.7997 161.768 67.6967 163.234 67.177C164.7 66.6575 165.988 65.7501 167.117 64.591C169.342 62.3079 171.033 58.9647 172.42 55.2989C173.818 51.6063 174.962 47.4375 176.019 43.4077C176.19 42.7547 176.359 42.1058 176.526 41.4631C177.398 38.1139 178.226 34.9316 179.121 32.21L179.121 32.2078C179.472 31.1318 179.834 30.0483 180.196 28.9645C182.083 23.3158 183.972 17.657 184.369 12.9902C184.608 10.1807 184.321 7.62515 183.103 5.59835C181.874 3.55327 179.753 2.13916 176.537 1.49081L176.535 1.49034C173.275 0.842186 168.562 1.55908 163.332 3.05992C158.064 4.57153 152.127 6.92142 146.322 9.67626C140.517 12.4317 134.817 15.6056 130.025 18.7779C125.262 21.9315 121.294 25.1493 119.05 28.0093Z" fill="#171717" stroke="#171717" stroke-width="2"/>
<path d="M96.5 180C140.922 180 177 144.443 177 100.5C177 56.5568 140.922 21 96.5 21C52.0779 21 16 56.5568 16 100.5C16 144.443 52.0779 180 96.5 180Z" fill="#171717" stroke="#171717" stroke-width="6"/>
<path d="M25.3563 93.839C25.5331 92.557 25.7014 91.2738 25.8883 89.9933C26.5882 85.1961 27.702 80.4983 29.3848 75.9458C29.6425 75.2485 29.4899 74.6733 29.2235 74.0618C26.7178 68.3108 24.2204 62.5561 21.7083 56.8078C19.5896 51.96 17.4262 47.1284 16.0654 41.9967C15.317 39.174 14.7555 36.3277 15.1078 33.3744C15.6794 28.5837 18.6503 25.7761 23.4982 25.479C26.9057 25.27 30.2424 25.7543 33.5293 26.5717C42.8494 28.8895 51.4712 32.7704 59.4105 38.1543C59.6141 38.2924 59.8222 38.4242 60.0304 38.5557C60.0634 38.5765 60.1076 38.5797 60.2041 38.6078C80.6822 27.0467 102.062 25.2951 124.312 33.09C124.34 33.0757 124.435 33.0561 124.48 32.9979C128.507 27.7884 133.621 23.8102 139.102 20.2603C144.506 16.7602 150.197 13.8187 156.34 11.8116C159.083 10.915 161.878 10.2782 164.796 10.1891C170.356 10.0191 172.945 13.8002 173.655 17.5726C174.169 20.3086 174.075 23.0624 173.594 25.7732C173.078 28.6732 172.343 31.5347 171.567 34.496C169.95 34.2541 168.473 33.9099 166.987 33.6105C165.625 33.3362 164.253 33.1104 162.862 32.7537C162.816 30.9499 162.604 29.2888 161.863 27.7408C160.717 25.3479 158.858 24.0287 156.138 23.9623C153.88 23.9073 151.715 24.3774 149.603 25.0816C142.731 27.3723 136.636 31.0619 130.944 35.463C130.825 35.5553 130.737 35.6883 130.57 35.874C131.025 36.1265 131.403 36.3489 131.792 36.5503C137.337 39.4195 142.42 42.9484 147.063 47.1117C150.685 50.3601 153.897 53.9779 156.87 57.9104C158.465 60.4014 160.026 62.8226 161.608 65.2303C161.822 65.5546 162.14 65.8105 162.41 66.0981C162.522 66.515 162.581 66.955 162.754 67.3444C163.314 68.5991 163.917 69.8352 164.43 71.2028C158.746 75.352 154.033 80.2233 150.46 86.1328C145.063 95.0579 142.971 104.691 144.538 115.019C145.858 123.724 149.681 131.287 155.479 137.888C156.181 138.686 156.962 139.416 157.706 140.178C157.509 140.531 157.349 140.913 157.109 141.235C145.48 156.805 130.096 166.409 110.935 169.994C105.898 170.936 100.804 171.356 95.6927 171.118C72.7702 170.049 54.1073 160.629 39.8434 142.681C39.6412 142.427 39.4863 142.135 39.3511 141.709C43.9905 132.81 44.8566 123.714 41.7437 114.338C38.9174 105.825 33.386 99.3148 26.1343 94.1607C25.9117 94.0024 25.6172 93.9441 25.3563 93.839ZM125.342 61.6319C124.106 60.9813 122.891 60.2824 121.628 59.6881C113.911 56.0588 105.71 54.4516 97.2452 54.0949C88.8748 53.7422 80.6368 54.6996 72.5743 57.0002C65.1472 59.1195 58.2105 62.2527 52.0783 67.0044C48.4369 69.8262 45.2998 73.1046 42.9944 77.1168C41.1659 80.2987 40.0435 83.7042 39.93 87.3834C39.7629 92.7941 41.6477 97.5013 45.0634 101.641C48.2857 105.546 52.3414 108.386 56.8495 110.615C63.9948 114.147 71.6251 115.9 79.5315 116.488C89.3222 117.215 98.9408 116.175 108.332 113.293C115.475 111.1 122.131 107.929 127.972 103.216C132.088 99.8949 135.518 96.0105 137.649 91.114C139.045 87.9045 139.706 84.5613 139.402 81.0478C139.003 76.4328 137.138 72.4491 134.193 68.9255C131.742 65.9923 128.772 63.6729 125.342 61.6319ZM29.2515 51.4578C30.4941 56.0795 32.3556 60.4642 34.3689 65.0507C39.3459 56.4016 45.6835 49.2252 53.5064 43.2146C53.1712 43.0173 53.0074 42.9045 52.8303 42.8193C49.265 41.1061 45.6084 39.6336 41.7572 38.6789C39.5941 38.1427 37.4105 37.7466 35.1685 37.8123C31.3051 37.9253 28.9899 40.0354 28.4693 43.8486C28.1233 46.3838 28.6048 48.8252 29.2515 51.4578Z" fill="#FE6F0B"/>
<path d="M165.491 73.2422C167.463 78.252 168.958 83.3904 169.77 88.7202C170.538 93.7591 170.814 98.8088 170.51 103.907C170.094 110.87 168.692 117.612 166.278 124.151C164.411 129.208 162.007 133.998 158.864 138.469C157.17 136.61 155.463 134.865 154.072 132.899C146.596 122.325 144.131 110.727 147.453 98.1391C150.151 87.9135 156.258 79.953 164.618 73.6056C164.86 73.4215 165.198 73.3607 165.491 73.2422Z" fill="#FE6F0B"/>
<path d="M38.1612 139.907C37.8732 139.655 37.5146 139.449 37.3072 139.143C32.6434 132.255 29.3098 124.776 27.291 116.715C25.6178 110.035 25.0267 103.25 25.398 96.2891C29.0872 98.6573 32.1854 101.651 34.709 105.179C42.26 115.736 43.7271 126.999 38.4743 138.988C38.3448 139.283 38.2645 139.6 38.1612 139.907Z" fill="#FD6F0B"/>
<path d="M162.455 66.0113C162.14 65.8106 161.822 65.5547 161.608 65.2304C160.026 62.8226 158.464 60.4014 156.941 57.8449C157.728 55.3268 158.502 52.9571 159.208 50.5677C160.924 44.7682 162.718 38.9823 162.886 32.8633C164.253 33.1104 165.625 33.3362 166.987 33.6105C168.473 33.9099 169.95 34.2542 171.528 34.5822C170.664 37.8393 169.689 41.0895 168.743 44.3477C166.655 51.5377 164.581 58.7318 162.455 66.0113Z" fill="#FC6706"/>
<path d="M165.474 73.155C165.198 73.3593 164.86 73.4201 164.618 73.6042C156.258 79.9516 150.151 87.912 147.453 98.1377C144.131 110.726 146.596 122.323 154.072 132.898C155.463 134.864 157.17 136.609 158.793 138.52C158.518 139.094 158.18 139.604 157.774 140.145C156.962 139.415 156.181 138.685 155.479 137.886C149.681 131.286 145.858 123.723 144.538 115.018C142.971 104.69 145.063 95.0567 150.46 86.1316C154.033 80.2221 158.746 75.3508 164.434 71.293C164.827 71.8631 165.142 72.4662 165.474 73.155Z" fill="#492003"/>
<path d="M38.1522 139.997C38.2644 139.601 38.3448 139.284 38.4742 138.989C43.7271 127 42.2599 115.736 34.709 105.18C32.1853 101.652 29.0871 98.658 25.4098 96.1774C25.3422 95.4618 25.3539 94.7664 25.3609 93.9545C25.6172 93.9431 25.9117 94.0014 26.1343 94.1597C33.386 99.3139 38.9174 105.824 41.7437 114.337C44.8566 123.713 43.9905 132.809 39.3276 141.621C38.8889 141.153 38.5161 140.619 38.1522 139.997Z" fill="#492003"/>
<path d="M125.422 61.6742C128.773 63.6726 131.742 65.992 134.193 68.9252C137.138 72.4488 139.003 76.4325 139.403 81.0475C139.706 84.5609 139.045 87.9042 137.649 91.1137C135.518 96.0102 132.088 99.8946 127.972 103.216C122.131 107.929 115.475 111.1 108.332 113.292C98.9409 116.175 89.3222 117.215 79.5315 116.487C71.6251 115.9 63.9949 114.147 56.8495 110.614C52.3415 108.386 48.2857 105.546 45.0635 101.641C41.6477 97.501 39.763 92.7938 39.93 87.383C40.0436 83.7039 41.166 80.2983 42.9944 77.1165C45.2999 73.1043 48.4369 69.8259 52.0784 67.0041C58.2106 62.2523 65.1472 59.1192 72.5744 56.9999C80.6369 54.6993 88.8749 53.7419 97.2452 54.0946C105.71 54.4512 113.912 56.0585 121.628 59.6877C122.891 60.2821 124.106 60.9809 125.422 61.6742ZM59.6907 100.618C59.9748 100.846 60.2325 101.124 60.5484 101.294C61.5901 101.855 62.8952 101.587 63.6725 100.692C64.4581 99.788 64.5236 98.504 63.8342 97.5258C63.1504 96.5557 61.897 96.1772 60.7867 96.6056C59.2295 97.2066 58.7451 98.7498 59.6907 100.618ZM68.115 90.9453C67.7214 90.8517 67.3304 90.6906 66.9343 90.677C65.6274 90.6322 64.5327 91.5667 64.3572 92.8181C64.1617 94.2121 64.9885 95.418 66.3647 95.7457C67.5814 96.0356 68.8673 95.337 69.3259 94.1373C69.7663 92.9849 69.455 92.0573 68.115 90.9453ZM118.672 94.1838C118.873 93.9291 119.118 93.6974 119.268 93.4157C119.912 92.2069 119.462 90.6993 118.279 90.0111C117.142 89.3496 115.658 89.6627 114.877 90.7291C114.067 91.8357 114.256 93.3951 115.346 94.2366C116.374 95.0304 117.452 95.0298 118.672 94.1838ZM111.752 85.4646C111.389 85.4334 111.016 85.3315 110.666 85.3833C109.249 85.5931 108.242 86.9461 108.46 88.2862C108.697 89.7498 110.027 90.7018 111.502 90.4647C112.884 90.2425 113.825 88.9156 113.583 87.4873C113.419 86.5255 112.843 85.878 111.752 85.4646ZM72.2901 84.1485C72.0211 84.244 71.7336 84.3059 71.4862 84.4406C70.333 85.0687 69.8423 86.3727 70.2854 87.5741C70.7479 88.8278 72.0345 89.5131 73.3485 89.2054C74.5739 88.9184 75.3917 87.7537 75.2831 86.4501C75.168 85.071 74.1802 84.2482 72.2901 84.1485ZM106.666 80.4577C106.412 80.3299 106.169 80.1691 105.901 80.0802C104.801 79.7152 103.63 80.1122 102.977 81.0482C102.342 81.9594 102.353 83.1269 103.006 84.0248C103.675 84.9434 104.887 85.326 105.961 84.9573C107.036 84.5882 107.715 83.5668 107.68 82.4C107.658 81.6606 107.348 81.068 106.666 80.4577ZM69.0395 80.5605C68.7718 80.3128 68.5343 80.0173 68.2308 79.826C67.281 79.2273 66.118 79.3293 65.2587 80.0413C64.4128 80.7423 64.0966 81.9026 64.474 82.9218C64.8532 83.9459 65.8319 84.6041 66.9515 84.5879C68.9325 84.5594 69.9516 82.7559 69.0395 80.5605ZM59.5413 75.8966C59.2974 75.9196 59.0435 75.9066 58.8115 75.9712C57.5511 76.3232 56.7978 77.4498 56.9285 78.7557C57.0483 79.9515 58.0489 80.9263 59.2789 81.0454C60.457 81.1596 61.6104 80.3538 61.9699 79.1655C62.435 77.6275 61.547 76.3258 59.5413 75.8966ZM113.587 75.9121C113.449 75.5761 113.361 75.2076 113.164 74.9103C112.504 73.9136 111.252 73.5354 110.137 73.9523C109.072 74.3507 108.352 75.441 108.435 76.5296C108.524 77.6947 109.445 78.7135 110.574 78.8975C111.786 79.0951 112.928 78.5255 113.383 77.4181C113.546 77.0194 113.537 76.5503 113.587 75.9121ZM114.463 70.6984C114.621 71.026 114.733 71.3887 114.947 71.6748C115.66 72.6245 116.949 72.929 118.033 72.4461C119.146 71.9506 119.759 70.725 119.5 69.5107C119.257 68.3705 118.221 67.5853 117.019 67.518C115.721 67.4453 114.12 68.7009 114.463 70.6984Z" fill="#171717"/>
<path d="M162.862 32.7528C162.718 38.9813 160.924 44.7672 159.208 50.5667C158.502 52.9561 157.728 55.3258 156.914 57.77C153.897 53.977 150.685 50.3592 147.063 47.1108C142.421 42.9475 137.337 39.4186 131.792 36.5494C131.403 36.348 131.025 36.1256 130.57 35.8731C130.737 35.6873 130.825 35.5544 130.944 35.462C136.636 31.061 142.731 27.3714 149.603 25.0806C151.715 24.3765 153.88 23.9064 156.138 23.9614C158.858 24.0278 160.717 25.347 161.863 27.7398C162.604 29.2879 162.816 30.949 162.862 32.7528Z" fill="#171717"/>
<path d="M29.2298 51.3546C28.6047 48.8208 28.1233 46.3794 28.4692 43.8442C28.9898 40.0311 31.3051 37.9209 35.1684 37.8079C37.4105 37.7422 39.5941 38.1383 41.7572 38.6745C45.6084 39.6292 49.265 41.1018 52.8303 42.815C53.0074 42.9001 53.1712 43.013 53.5064 43.2103C45.6834 49.2209 39.3459 56.3972 34.3689 65.0464C32.3556 60.4599 30.4941 56.0751 29.2298 51.3546Z" fill="#171717"/>
<path d="M59.6332 100.539C58.745 98.7487 59.2294 97.2055 60.7866 96.6045C61.8969 96.1761 63.1503 96.5546 63.8341 97.5247C64.5235 98.5029 64.458 99.787 63.6724 100.691C62.895 101.586 61.59 101.854 60.5482 101.293C60.2324 101.123 59.9747 100.845 59.6332 100.539Z" fill="#F76405"/>
<path d="M68.2001 90.9913C69.455 92.0576 69.7663 92.9852 69.3259 94.1376C68.8672 95.3373 67.5813 96.0359 66.3646 95.7461C64.9885 95.4183 64.1616 94.2124 64.3571 92.8184C64.5327 91.567 65.6273 90.6325 66.9343 90.6773C67.3304 90.6909 67.7214 90.852 68.2001 90.9913Z" fill="#F76405"/>
<path d="M118.601 94.2429C117.452 95.0287 116.374 95.0293 115.346 94.2356C114.256 93.394 114.067 91.8346 114.877 90.728C115.658 89.6616 117.142 89.3485 118.279 90.01C119.462 90.6982 119.911 92.2058 119.268 93.4147C119.118 93.6964 118.873 93.928 118.601 94.2429Z" fill="#F76405"/>
<path d="M111.844 85.4896C112.843 85.8762 113.419 86.5237 113.582 87.4855C113.825 88.9137 112.884 90.2406 111.502 90.4628C110.027 90.7 108.697 89.7479 108.459 88.2844C108.242 86.9442 109.249 85.5912 110.666 85.3814C111.016 85.3296 111.389 85.4316 111.844 85.4896Z" fill="#F76405"/>
<path d="M72.3859 84.1328C74.1801 84.2484 75.168 85.0712 75.283 86.4503C75.3916 87.7538 74.5738 88.9185 73.3484 89.2055C72.0345 89.5132 70.7478 88.8279 70.2853 87.5742C69.8423 86.3728 70.3329 85.0688 71.4862 84.4408C71.7336 84.3061 72.021 84.2441 72.3859 84.1328Z" fill="#F76405"/>
<path d="M106.738 80.5175C107.348 81.0675 107.658 81.6601 107.68 82.3995C107.715 83.5663 107.036 84.5877 105.961 84.9567C104.887 85.3255 103.675 84.9429 103.006 84.0243C102.353 83.1264 102.342 81.9589 102.977 81.0477C103.63 80.1117 104.801 79.7146 105.901 80.0797C106.169 80.1685 106.412 80.3294 106.738 80.5175Z" fill="#F76405"/>
<path d="M69.0881 80.6393C69.9516 82.7546 68.9325 84.5581 66.9515 84.5866C65.8319 84.6028 64.8531 83.9445 64.474 82.9205C64.0966 81.9013 64.4127 80.741 65.2587 80.0399C66.118 79.3279 67.281 79.226 68.2307 79.8246C68.5343 80.016 68.7718 80.3114 69.0881 80.6393Z" fill="#F76405"/>
<path d="M59.643 75.9062C61.5469 76.3315 62.4349 77.6332 61.9698 79.1712C61.6103 80.3595 60.4569 81.1653 59.2788 81.0511C58.0487 80.932 57.0482 79.9572 56.9284 78.7614C56.7977 77.4555 57.551 76.3289 58.8114 75.9769C59.0434 75.9123 59.2973 75.9253 59.643 75.9062Z" fill="#F76405"/>
<path d="M113.597 76.0128C113.537 76.5504 113.546 77.0195 113.383 77.4182C112.928 78.5256 111.786 79.0952 110.574 78.8976C109.445 78.7136 108.524 77.6949 108.435 76.5297C108.351 75.4412 109.072 74.3508 110.137 73.9524C111.252 73.5356 112.504 73.9137 113.164 74.9104C113.361 75.2077 113.449 75.5762 113.597 76.0128Z" fill="#F76405"/>
<path d="M114.436 70.6029C114.12 68.6976 115.721 67.442 117.019 67.5147C118.221 67.582 119.257 68.3672 119.5 69.5074C119.759 70.7217 119.146 71.9473 118.033 72.4428C116.949 72.9257 115.66 72.6212 114.947 71.6715C114.733 71.3854 114.621 71.0227 114.436 70.6029Z" fill="#F76405"/>
<g filter="url(#filter0_d_106_18)">
<mask id="path-23-outside-1_106_18" maskUnits="userSpaceOnUse" x="133" y="57" width="313" height="128" fill="black">
<rect fill="white" x="133" y="57" width="313" height="128"/>
<path d="M173 115C160.1 113.5 151.7 105.4 151.7 93.7C151.7 81.1 163.3 72.2 173.6 72.2C181 72.2 188 75 193.7 81.8L181.5 90.7C179.5 88.6 176.2 87 173.6 87C169.5 87 166.7 89.5 166.7 93.6C166.7 97 169.2 100.1 177.1 100.6C189.8 101.4 200.3 110 200.3 124.4C200.3 138.9 188.2 149.3 175.1 149.3C166.6 149.3 158.1 146.2 151 138.4L163.8 129C167.2 133.3 170.7 134.4 175.1 134.4C180.2 134.4 184.2 130.3 184.2 125.5C184.2 119.5 180.2 115.8 173 115ZM222.151 143.2L199.451 97.5H215.051L229.651 128.8L243.951 97.5H258.051L223.351 172.1H208.651L222.151 143.2ZM313.373 122.8V148H299.273V122.8C299.273 114.7 294.573 110.6 288.773 110.6C282.473 110.6 276.673 114.7 276.673 122.8V148H262.473V97.5H276.673V101C279.473 97.8 285.373 96.4 289.973 96.4C303.773 96.4 313.373 108.2 313.373 122.8ZM352.229 110.6H340.229V126.7C340.229 132.4 345.429 135 351.929 135V149.1C336.829 149.1 326.029 140.2 326.029 127.1V110.6H318.429V97.5H326.029V90.9L340.229 80.6V97.5H352.229V110.6Z"/>
<path d="M377.762 109.7L354.062 73.5H371.562L387.662 98.4L403.362 73.5H419.762L397.462 108.8L422.962 148H405.562L387.562 120.3L370.262 148H353.862L377.762 109.7Z"/>
</mask>
<path d="M173 115C160.1 113.5 151.7 105.4 151.7 93.7C151.7 81.1 163.3 72.2 173.6 72.2C181 72.2 188 75 193.7 81.8L181.5 90.7C179.5 88.6 176.2 87 173.6 87C169.5 87 166.7 89.5 166.7 93.6C166.7 97 169.2 100.1 177.1 100.6C189.8 101.4 200.3 110 200.3 124.4C200.3 138.9 188.2 149.3 175.1 149.3C166.6 149.3 158.1 146.2 151 138.4L163.8 129C167.2 133.3 170.7 134.4 175.1 134.4C180.2 134.4 184.2 130.3 184.2 125.5C184.2 119.5 180.2 115.8 173 115ZM222.151 143.2L199.451 97.5H215.051L229.651 128.8L243.951 97.5H258.051L223.351 172.1H208.651L222.151 143.2ZM313.373 122.8V148H299.273V122.8C299.273 114.7 294.573 110.6 288.773 110.6C282.473 110.6 276.673 114.7 276.673 122.8V148H262.473V97.5H276.673V101C279.473 97.8 285.373 96.4 289.973 96.4C303.773 96.4 313.373 108.2 313.373 122.8ZM352.229 110.6H340.229V126.7C340.229 132.4 345.429 135 351.929 135V149.1C336.829 149.1 326.029 140.2 326.029 127.1V110.6H318.429V97.5H326.029V90.9L340.229 80.6V97.5H352.229V110.6Z" fill="white"/>
<path d="M377.762 109.7L354.062 73.5H371.562L387.662 98.4L403.362 73.5H419.762L397.462 108.8L422.962 148H405.562L387.562 120.3L370.262 148H353.862L377.762 109.7Z" fill="#FF5E00"/>
<path d="M173 115L171.614 126.92L171.644 126.923L171.675 126.927L173 115ZM193.7 81.8L200.772 91.4945L211.143 83.929L202.896 74.0912L193.7 81.8ZM181.5 90.7L172.81 98.9759L180.069 106.598L188.572 100.395L181.5 90.7ZM177.1 100.6L176.342 112.576L176.346 112.576L177.1 100.6ZM151 138.4L143.897 128.728L133.152 136.619L142.126 146.478L151 138.4ZM163.8 129L173.213 121.557L166.031 112.474L156.697 119.328L163.8 129ZM174.386 103.08C170.06 102.577 167.406 101.084 165.955 99.6468C164.622 98.3273 163.7 96.4938 163.7 93.7H139.7C139.7 102.606 142.978 110.673 149.07 116.703C155.044 122.616 163.04 125.923 171.614 126.92L174.386 103.08ZM163.7 93.7C163.7 91.2883 164.772 88.9989 166.852 87.1115C169.062 85.1056 171.729 84.2 173.6 84.2V60.2C157.796 60.2 139.7 73.4027 139.7 93.7H163.7ZM173.6 84.2C177.584 84.2 181.168 85.5289 184.504 89.5088L202.896 74.0912C194.832 64.4711 184.416 60.2 173.6 60.2V84.2ZM186.628 72.1055L174.428 81.0055L188.572 100.395L200.772 91.4945L186.628 72.1055ZM190.19 82.4241C186.389 78.4337 180.102 75 173.6 75V99C173.314 99 173.094 98.9784 172.946 98.9577C172.797 98.9369 172.695 98.9135 172.643 98.8999C172.548 98.8753 172.556 98.8687 172.642 98.9093C172.724 98.9482 172.808 98.9976 172.87 99.0416C172.937 99.0886 172.909 99.0799 172.81 98.9759L190.19 82.4241ZM173.6 75C169.129 75 164.259 76.3925 160.402 80.0109C156.453 83.7156 154.7 88.6981 154.7 93.6H178.7C178.7 94.4019 178.347 96.0844 176.823 97.5141C175.391 98.8575 173.971 99 173.6 99V75ZM154.7 93.6C154.7 98.5985 156.728 103.868 161.54 107.636C165.828 110.993 171.177 112.249 176.342 112.576L177.858 88.624C176.593 88.5439 175.92 88.3806 175.672 88.3044C175.432 88.2303 175.765 88.2923 176.335 88.739C176.954 89.2232 177.632 89.9923 178.113 91.0361C178.579 92.0475 178.7 92.9674 178.7 93.6H154.7ZM176.346 112.576C180.26 112.823 183.252 114.23 185.146 116.05C186.901 117.738 188.3 120.318 188.3 124.4H212.3C212.3 114.082 208.449 105.162 201.779 98.7495C195.248 92.4701 186.64 89.1772 177.854 88.6237L176.346 112.576ZM188.3 124.4C188.3 131.658 182.204 137.3 175.1 137.3V161.3C194.196 161.3 212.3 146.142 212.3 124.4H188.3ZM175.1 137.3C169.792 137.3 164.577 135.489 159.874 130.322L142.126 146.478C151.623 156.911 163.408 161.3 175.1 161.3V137.3ZM158.103 148.072L170.903 138.672L156.697 119.328L143.897 128.728L158.103 148.072ZM154.387 136.443C157.065 139.829 160.281 142.557 164.25 144.3C168.141 146.008 171.92 146.4 175.1 146.4V122.4C173.88 122.4 173.709 122.242 173.9 122.325C173.984 122.362 174.001 122.387 173.928 122.328C173.841 122.258 173.597 122.042 173.213 121.557L154.387 136.443ZM175.1 146.4C186.741 146.4 196.2 137.014 196.2 125.5H172.2C172.2 123.586 173.659 122.4 175.1 122.4V146.4ZM196.2 125.5C196.2 119.619 194.127 113.861 189.492 109.531C185.116 105.443 179.561 103.655 174.325 103.073L171.675 126.927C172.607 127.03 173.128 127.195 173.344 127.281C173.545 127.361 173.396 127.337 173.108 127.069C172.797 126.778 172.515 126.378 172.341 125.947C172.176 125.541 172.2 125.341 172.2 125.5H196.2ZM222.151 143.2L233.023 148.279L235.47 143.04L232.898 137.862L222.151 143.2ZM199.451 97.5V85.5H180.091L188.704 102.838L199.451 97.5ZM215.051 97.5L225.926 92.4273L222.695 85.5H215.051V97.5ZM229.651 128.8L218.776 133.873L229.764 157.43L240.566 133.787L229.651 128.8ZM243.951 97.5V85.5H236.24L233.036 92.5134L243.951 97.5ZM258.051 97.5L268.931 102.561L276.867 85.5H258.051V97.5ZM223.351 172.1V184.1H231.004L234.231 177.161L223.351 172.1ZM208.651 172.1L197.779 167.021L189.801 184.1H208.651V172.1ZM232.898 137.862L210.198 92.1617L188.704 102.838L211.404 148.538L232.898 137.862ZM199.451 109.5H215.051V85.5H199.451V109.5ZM204.176 102.573L218.776 133.873L240.526 123.727L225.926 92.4273L204.176 102.573ZM240.566 133.787L254.866 102.487L233.036 92.5134L218.736 123.813L240.566 133.787ZM243.951 109.5H258.051V85.5H243.951V109.5ZM247.17 92.439L212.47 167.039L234.231 177.161L268.931 102.561L247.17 92.439ZM223.351 160.1H208.651V184.1H223.351V160.1ZM219.523 177.179L233.023 148.279L211.279 138.121L197.779 167.021L219.523 177.179ZM313.373 148V160H325.373V148H313.373ZM299.273 148H287.273V160H299.273V148ZM276.673 148V160H288.673V148H276.673ZM262.473 148H250.473V160H262.473V148ZM262.473 97.5V85.5H250.473V97.5H262.473ZM276.673 97.5H288.673V85.5H276.673V97.5ZM276.673 101H264.673V132.937L285.704 108.902L276.673 101ZM301.373 122.8V148H325.373V122.8H301.373ZM313.373 136H299.273V160H313.373V136ZM311.273 148V122.8H287.273V148H311.273ZM311.273 122.8C311.273 116.429 309.388 110.212 304.974 105.479C300.528 100.711 294.573 98.6 288.773 98.6V122.6C288.808 122.6 288.639 122.605 288.339 122.483C288.023 122.354 287.69 122.135 287.421 121.846C287.155 121.561 287.094 121.362 287.117 121.428C287.146 121.512 287.273 121.928 287.273 122.8H311.273ZM288.773 98.6C283.097 98.6 277.048 100.449 272.281 104.79C267.329 109.299 264.673 115.678 264.673 122.8H288.673C288.673 122.505 288.699 122.317 288.718 122.22C288.736 122.124 288.75 122.103 288.735 122.138C288.72 122.173 288.688 122.238 288.63 122.319C288.574 122.399 288.508 122.473 288.44 122.535C288.3 122.662 288.215 122.684 288.263 122.667C288.288 122.658 288.344 122.641 288.432 122.626C288.52 122.611 288.635 122.6 288.773 122.6V98.6ZM264.673 122.8V148H288.673V122.8H264.673ZM276.673 136H262.473V160H276.673V136ZM274.473 148V97.5H250.473V148H274.473ZM262.473 109.5H276.673V85.5H262.473V109.5ZM264.673 97.5V101H288.673V97.5H264.673ZM285.704 108.902C285.331 109.327 285.091 109.434 285.232 109.354C285.361 109.28 285.682 109.124 286.227 108.954C287.367 108.598 288.775 108.4 289.973 108.4V84.4C286.57 84.4 282.729 84.9024 279.068 86.0462C275.591 87.1329 271.074 89.1748 267.642 93.0979L285.704 108.902ZM289.973 108.4C295.557 108.4 301.373 113.119 301.373 122.8H325.373C325.373 103.281 311.988 84.4 289.973 84.4V108.4ZM352.229 110.6V122.6H364.229V110.6H352.229ZM340.229 110.6V98.6H328.229V110.6H340.229ZM351.929 135H363.929V123H351.929V135ZM351.929 149.1V161.1H363.929V149.1H351.929ZM326.029 110.6H338.029V98.6H326.029V110.6ZM318.429 110.6H306.429V122.6H318.429V110.6ZM318.429 97.5V85.5H306.429V97.5H318.429ZM326.029 97.5V109.5H338.029V97.5H326.029ZM326.029 90.9L318.983 81.1863L314.029 84.7798V90.9H326.029ZM340.229 80.6H352.229V57.0714L333.183 70.8863L340.229 80.6ZM340.229 97.5H328.229V109.5H340.229V97.5ZM352.229 97.5H364.229V85.5H352.229V97.5ZM352.229 98.6H340.229V122.6H352.229V98.6ZM328.229 110.6V126.7H352.229V110.6H328.229ZM328.229 126.7C328.229 133.882 331.819 139.642 337.137 143.072C341.867 146.123 347.34 147 351.929 147V123C351.08 123 350.483 122.913 350.131 122.829C349.767 122.743 349.833 122.701 350.146 122.903C350.498 123.13 351.104 123.635 351.597 124.51C352.105 125.411 352.229 126.238 352.229 126.7H328.229ZM339.929 135V149.1H363.929V135H339.929ZM351.929 137.1C346.676 137.1 343.095 135.559 341.045 133.833C339.153 132.24 338.029 130.093 338.029 127.1H314.029C314.029 137.207 318.305 146.06 325.588 152.192C332.713 158.191 342.082 161.1 351.929 161.1V137.1ZM338.029 127.1V110.6H314.029V127.1H338.029ZM326.029 98.6H318.429V122.6H326.029V98.6ZM330.429 110.6V97.5H306.429V110.6H330.429ZM318.429 109.5H326.029V85.5H318.429V109.5ZM338.029 97.5V90.9H314.029V97.5H338.029ZM333.075 100.614L347.275 90.3137L333.183 70.8863L318.983 81.1863L333.075 100.614ZM328.229 80.6V97.5H352.229V80.6H328.229ZM340.229 109.5H352.229V85.5H340.229V109.5ZM340.229 97.5V110.6H364.229V97.5H340.229ZM377.762 109.7L387.942 116.053L392.003 109.545L387.801 103.127L377.762 109.7ZM354.062 73.5V61.5H331.862L344.022 80.073L354.062 73.5ZM371.562 73.5L381.639 66.9843L378.093 61.5H371.562V73.5ZM387.662 98.4L377.585 104.916L387.789 120.697L397.812 104.8L387.662 98.4ZM403.362 73.5V61.5H396.742L393.211 67.0997L403.362 73.5ZM419.762 73.5L429.907 79.909L441.536 61.5H419.762V73.5ZM397.462 108.8L387.317 102.391L383.208 108.895L387.403 115.343L397.462 108.8ZM422.962 148V160H445.083L433.021 141.457L422.962 148ZM405.562 148L395.5 154.539L399.049 160H405.562V148ZM387.562 120.3L397.624 113.761L387.361 97.968L377.384 113.943L387.562 120.3ZM370.262 148V160H376.915L380.44 154.357L370.262 148ZM353.862 148L343.681 141.647L332.229 160H353.862V148ZM387.801 103.127L364.101 66.927L344.022 80.073L367.722 116.273L387.801 103.127ZM354.062 85.5H371.562V61.5H354.062V85.5ZM361.485 80.0157L377.585 104.916L397.739 91.8843L381.639 66.9843L361.485 80.0157ZM397.812 104.8L413.512 79.9002L393.211 67.0997L377.511 91.9998L397.812 104.8ZM403.362 85.5H419.762V61.5H403.362V85.5ZM409.617 67.091L387.317 102.391L407.607 115.209L429.907 79.909L409.617 67.091ZM387.403 115.343L412.903 154.543L433.021 141.457L407.521 102.257L387.403 115.343ZM422.962 136H405.562V160H422.962V136ZM415.624 141.461L397.624 113.761L377.5 126.839L395.5 154.539L415.624 141.461ZM377.384 113.943L360.084 141.643L380.44 154.357L397.74 126.657L377.384 113.943ZM370.262 136H353.862V160H370.262V136ZM364.042 154.353L387.942 116.053L367.581 103.347L343.681 141.647L364.042 154.353Z" fill="#171717" mask="url(#path-23-outside-1_106_18)"/>
</g>
<defs>
<filter id="filter0_d_106_18" x="129.152" y="57.0703" width="319.932" height="135.031" filterUnits="userSpaceOnUse" color-interpolation-filters="sRGB">
<feFlood flood-opacity="0" result="BackgroundImageFix"/>
<feColorMatrix in="SourceAlpha" type="matrix" values="0 0 0 0 0 0 0 0 0 0 0 0 0 0 0 0 0 0 127 0" result="hardAlpha"/>
<feOffset dy="4"/>
<feGaussianBlur stdDeviation="2"/>
<feComposite in2="hardAlpha" operator="out"/>
<feColorMatrix type="matrix" values="0 0 0 0 0 0 0 0 0 0 0 0 0 0 0 0 0 0 0.25 0"/>
<feBlend mode="normal" in2="BackgroundImageFix" result="effect1_dropShadow_106_18"/>
<feBlend mode="normal" in="SourceGraphic" in2="effect1_dropShadow_106_18" result="shape"/>
</filter>
</defs>
</svg>
